<svg viewBox="-93 0 510 510.27415" xmlns="http://www.w3.org/2000/svg"><path d="m14.925781 281.101562c.671875.136719 1.355469.179688 2.039063.136719 1.492187 34.421875 7.875 108.953125 35.113281 149.820313 28.546875 42.8125 78.933594 68.15625 99.261719 77.054687 6.523437 2.882813 13.957031 2.882813 20.480468 0 20.480469-8.90625 71.183594-34.242187 99.726563-77.082031 27.308594-40.957031 33.65625-115.515625 35.125-149.886719.152344 0 .28125.085938.425781.085938.535156 0 1.066406-.050781 1.585938-.152344 2.773437-.523437 5.109375-2.382813 6.238281-4.96875 9.851563-24.980469 11.351563-52.476563 4.269531-78.378906-4.539062-14.984375-12.460937-28.726563-23.160156-40.15625-.351562-.476563-.75-.910157-1.195312-1.296875-1.261719-1.332032-2.390626-2.757813-3.738282-4.039063-12.125-11.449219-26.132812-20.726562-41.410156-27.414062h-.136719c-5.453125-2.59375-11.042969-4.871094-16.753906-6.828125l-1.527344-.53125c-.390625-.195313-.792969-.363282-1.210937-.5-1.269532-.453125-2.558594-.855469-3.414063-1.144532-9.195312-3.085937-18.554687-5.648437-28.039062-7.679687-5.121094-1.144531-10.46875-2.152344-15.675781-3.0625.015624-2.496094.277343-4.984375.785156-7.425781.597656-4.265625 1.515625-8.476563 2.746094-12.605469 4.371093-15.742187 7.679687-29.796875 10.148437-42.996094 1.9375-10.589843 5.972656-32.632812-10.292969-40.6875-8.277344-2.78125-17.394531-1.25-24.3125 4.078125-.9375.527344-1.824218 1.03125-2.71875 1.484375-6.359375 3.300781-12.707031 6.871094-18.917968 10.496094l-2.355469 1.3125c-9.527344 3.574219-16.578125 11.746094-18.714844 21.695313.054687 8.605468 4.625 16.554687 12.039063 20.929687 10.574218 7.621094 10.847656 18.527344 7.878906 33.671875 0 .1875-.070313.386719-.09375.589844-.230469 1.230468-.480469 2.441406-.71875 3.625l-.484375 2.449218c-.335938 1.402344-.625 2.75-.855469 4.03125-4.113281.765626-8.113281 1.585938-12.03125 2.414063-9.660156 2.117187-19.207031 4.730469-28.59375 7.832031-.199219.070313-.386719.136719-.582031.222656-.675781.203126-1.375.433594-2.046875.675782-.46875.125-.921875.292968-1.359375.5l-1.550781.503906c-5.71875 1.976562-11.316407 4.269531-16.777344 6.871094h-.136719c-15.25 6.683594-29.238281 15.941406-41.351563 27.367187-1.398437 1.339844-2.5625 2.804688-3.882812 4.1875-.429688.386719-.824219.8125-1.167969 1.273438-10.652343 11.425781-18.535156 25.148437-23.042969 40.105469-7.085937 25.902343-5.585937 53.40625 4.269532 78.386718 1.085937 2.582032 3.375 4.464844 6.117187 5.035156zm146.652344-155.816406c8.753906 7.515625 16.480469 16.152344 22.980469 25.683594-10.25 13.851562-18.023438 29.371094-22.980469 45.875-4.945313-16.503906-12.71875-32.027344-22.96875-45.875 6.496094-9.53125 14.21875-18.167969 22.96875-25.683594zm141.175781 133.253906c-5.851562-3.59375-12.082031-6.539062-18.578125-8.78125-4.164062-1.492187-8.53125-2.746093-13.070312-3.898437 10.398437-9.355469 22.324219-16.859375 35.257812-22.1875.59375 11.738281-.625 23.5-3.609375 34.867187zm-79.710937-19.804687c3.957031-17.300781 12.953125-33.042969 25.859375-45.226563 2.394531 15.894532 2.535156 32.046876.417968 47.980469-8.832031-1.304687-17.707031-2.183593-26.277343-2.753906zm36.226562-73.660156c-2.449219-7.28125-5.5625-14.320313-9.292969-21.035157 8.097657 4.125 15.742188 9.089844 22.800782 14.8125-4.628906 1.792969-9.140625 3.871094-13.507813 6.222657zm-34.320312-27.308594c8.925781 10.894531 15.566406 23.476563 19.523437 36.992187-8.726562 6.847657-16.320312 15.023438-22.503906 24.226563-2.738281-16.28125-8.25-31.972656-16.289062-46.394531 5.648437-5.863282 12.140624-10.855469 19.257812-14.804688zm-18.707031 97.921875c-.050782.195312-.09375.390625-.136719.589844-.089844.535156-.152344 1.078125-.1875 1.621094-3.242188-.085938-6.390625-.144532-9.386719-.164063-.144531 0-.28125 0-.441406 0-4.730469-.085937-9.105469-.085937-12.929688 0h-11.433594v-7.292969c2.691407-22.476562 10.292969-44.085937 22.261719-63.300781 10.320313 21.285156 14.558594 45.003906 12.253907 68.546875zm-54.816407-5.238281v7.285156h-10.882812c-3.964844-.050781-8.351563-.066406-13.039063 0h-.460937c-3.113281 0-6.382813.078125-9.777344.171875-.035156-.546875-.105469-1.09375-.214844-1.628906 0-.1875-.082031-.386719-.136719-.574219-2.292968-23.542969 1.941407-47.269531 12.246094-68.5625 11.9375 19.230469 19.535156 40.835937 22.265625 63.308594zm-50.21875-31.4375c-6.183593-9.207031-13.78125-17.382813-22.511719-24.226563 3.941407-13.523437 10.582032-26.109375 19.515626-37 7.128906 3.953125 13.625 8.949219 19.277343 14.820313-8.039062 14.425781-13.546875 30.121093-16.28125 46.40625zm-28.222656-54.613281c-3.640625 6.625-6.683594 13.558593-9.085937 20.726562-4.273438-2.308594-8.691407-4.347656-13.21875-6.109375 6.90625-5.644531 14.378906-10.558594 22.296874-14.660156zm1.28125 49.1875c12.910156 12.179687 21.914063 27.921874 25.863281 45.226562-8.53125.578125-17.449218 1.457031-26.273437 2.796875-2.128907-15.960937-1.992188-32.144531.402343-48.066406zm-53.453125 64.972656c-3.003906-11.335938-4.222656-23.070313-3.617188-34.785156 12.796876 5.40625 24.601563 12.902343 34.933594 22.1875-4.382812 1.136718-8.683594 2.371093-12.738281 3.824218-6.496094 2.234375-12.722656 5.175782-18.578125 8.773438zm236.554688 163.027344c-26.035157 39.066406-73.25 62.601562-92.339844 70.902343-2.171875.972657-4.65625.972657-6.828125 0-18.960938-8.300781-65.875-31.828125-91.910157-70.894531-27.769531-41.648438-31.96875-127.144531-32.597656-150.636719 3.695313-1.992187 7.53125-3.703125 11.484375-5.121093 26.597657-7.859376 54.25-11.582032 81.980469-11.035157h.570312c4.550782-.050781 8.765626 0 12.691407 0h42.929687c3.824219-.078125 7.976563-.078125 12.457032 0h.625c27.730468-.542969 55.378906 3.171875 81.980468 11.019531 3.960938 1.410157 7.8125 3.121094 11.519532 5.117188-.625 23.492188-4.796876 108.9375-32.5625 150.648438zm46.480468-214.980469c-13.09375 4.492187-25.292968 11.253906-36.035156 19.976562.578125-14.933593-.6875-29.886719-3.773438-44.507812 7.011719-4.175781 14.5-7.503907 22.296876-9.910157 7.546874 8.910157 13.175781 19.28125 16.53125 30.464844.355468 1.332032.578124 2.679688.9375 3.976563zm-95.488281-78.507813c-4.273437 2.914063-8.308594 6.152344-12.074219 9.695313-3.945312-5.375-8.25-10.472657-12.886718-15.257813 3.875.707032 7.757812 1.460938 11.527343 2.296875 4.609375.988281 9.054688 2.082031 13.390625 3.257813zm-72.097656-85.828125c.359375-3.105469 4.511719-5.605469 9.914062-8.53125l2.722657-1.527343c6.066406-3.542969 12.125-6.957032 18.167968-10.097657 1.015625-.519531 2.109375-1.125 3.25-1.765625 2.585938-1.691406 5.449219-2.917968 8.457032-3.625 3.105468 1.535156 3.414062 9.042969 1.03125 22.28125-2.351563 12.671875-5.570313 26.253906-9.804688 41.488282-1.40625 4.71875-2.449219 9.535156-3.121094 14.414062-.605468 3.019531-.933594 6.089844-.980468 9.171875l-11.09375.238281.324218-1.605468c.289063-1.441407.585938-2.917969.851563-4.417969.027343-.113281.042969-.226563.050781-.34375 2.117188-10.777344 6.589844-35.0625-14.667969-50.34375-4.949219-3.6875-5.085937-5.285157-5.101562-5.335938zm-7.636719 82.554688c3.496094-.746094 7.269531-1.417969 10.964844-2.117188-4.558594 4.734375-8.789063 9.769531-12.664063 15.078125-3.730469-3.503906-7.722656-6.710937-11.945312-9.601562 4.46875-1.21875 9.019531-2.335938 13.644531-3.359375zm-91.417969 47.445312c7.679688 2.398438 15.054688 5.6875 21.972657 9.804688-3.085938 14.625-4.355469 29.574219-3.78125 44.507812-10.636719-8.636719-22.691407-15.371093-35.625-19.898437.339843-1.359375.597656-2.699219 1.003906-4.0625 3.335937-11.136719 8.925781-21.46875 16.429687-30.351563zm0 0"/><path d="m165.042969 452.65625c-71.066407-31.582031-80.050781-77.023438-80.390625-78.984375-.789063-4.648437-5.199219-7.773437-9.84375-6.984375-4.648438.789062-7.773438 5.195312-6.984375 9.84375.375 2.269531 10.238281 56.132812 90.28125 91.722656 4.308593 1.917969 9.351562-.023437 11.269531-4.328125 1.914062-4.308593-.023438-9.355469-4.332031-11.269531zm0 0"/><path d="m76.246094 340.988281c0 4.714844-3.820313 8.535157-8.535156 8.535157-4.710938 0-8.53125-3.820313-8.53125-8.535157 0-4.710937 3.820312-8.53125 8.53125-8.53125 4.714843 0 8.535156 3.820313 8.535156 8.53125zm0 0"/></svg>