<?xml version="1.0"?>
<svg xmlns="http://www.w3.org/2000/svg" viewBox="-21 0 512 512"><path d="m105.761719 170.996094h-15c0 44.15625 19.546875 85.386718 53.625 113.117187l9.46875-11.632812c-30.566407-24.871094-48.09375-61.859375-48.09375-101.484375zm0 0" /><path d="m184.601562 458.804688h5.300782l5.996094 53.195312h81.722656l5.992187-53.195312h5.300781l4.796876-40.03125h-113.90625zm79.617188 38.195312h-54.914062l-.984376-8.722656h56.878907zm12.589844-63.226562-1.203125 10.03125h-5.394531l-3.320313 29.472656h-60.261719l-1.632812-14.472656h31.765625v-15h-38.847657l-1.203124-10.03125zm0 0" /><path d="m108.8125 318.242188c-2.890625-16.792969-17.558594-29.613282-35.164062-29.613282-12.480469 0-23.96875 6.605469-30.382813 16.972656-.5625-.050781-1.125-.078124-1.691406-.078124-8.074219 0-14.976563 5.121093-17.628907 12.289062-13.8125 3.542969-23.945312 16.128906-23.945312 30.871094 0 17.574218 14.296875 31.871094 31.871094 31.871094h67.449218c17.574219 0 31.871094-14.296876 31.871094-31.871094 0-14.242188-9.265625-26.394532-22.378906-30.441406zm-9.492188 47.3125h-67.449218c-9.304688 0-16.871094-7.566407-16.871094-16.871094 0-8.871094 6.925781-16.265625 15.765625-16.832032l7.019531-.453124v-7.148438c.035156-2.058594 1.722656-3.726562 3.789063-3.726562.671875 0 1.308593.167968 1.882812.503906l7.699219 4.449218 3.085938-8.339843c2.992187-8.078125 10.789062-13.507813 19.40625-13.507813 11.386718 0 20.652343 9.25 20.683593 20.628906l-.003906 6.953126 6.738281.691406c8.621094.878906 15.125 8.09375 15.125 16.78125 0 9.300781-7.570312 16.871094-16.871094 16.871094zm0 0" /><path d="m442.46875 359.082031c-2.722656-7.984375-10.296875-13.742187-19.191406-13.742187-.8125 0-1.625.046875-2.429688.144531-7.011718-11.746094-19.863281-19.253906-33.847656-19.253906-19.640625 0-35.96875 14.449219-38.90625 33.277343-14.730469 4.269532-25.199219 17.785157-25.199219 33.667969 0 19.332031 15.730469 35.0625 35.066407 35.0625h76.292968c19.335938 0 35.066406-15.730469 35.066406-35.066406 0-16.398437-11.394531-30.367187-26.851562-34.089844zm-8.214844 54.160157h-76.292968c-11.066407 0-20.066407-9.003907-20.066407-20.066407 0-10.332031 7.734375-18.914062 17.992188-19.960937l6.734375-.691406v-6.917969c0-13.441407 10.9375-24.375 24.378906-24.375 10.15625 0 19.347656 6.394531 22.871094 15.917969l3.085937 8.335937 7.699219-4.445313c.804688-.464843 1.6875-.699218 2.621094-.699218 2.863281 0 5.199218 2.289062 5.269531 5.136718v7.222657l7.019531.453125c10.515625.671875 18.753906 9.46875 18.753906 20.023437 0 11.0625-9.003906 20.066407-20.066406 20.066407zm0 0" /><path d="m381.808594 261.570312c16.972656-27.117187 25.941406-58.4375 25.941406-90.578124 0-45.832032-17.894531-88.875-50.378906-121.207032-32.285156-32.125-75.082032-49.785156-120.609375-49.785156-.28125 0-.570313 0-.855469.00390625-45.65625.21874975-88.441406 18.07031275-120.476562 50.26171875-32.027344 32.191406-49.667969 75.066406-49.667969 120.730469 0 32.167968 8.984375 63.511718 25.980469 90.644531 16.53125 26.382813 39.917968 47.773437 67.636718 61.863281 13.390625 6.804688 23.015625 18.960938 26.40625 33.34375l.195313.835938 11.992187 55.183594 14.660156-3.1875-10.027343-46.136719h26.65625v47.730469h15v-47.730469h26.667969l-10.042969 46.132812 14.652343 3.191407 12.203126-56.058594c3.398437-14.355469 13.066406-26.519532 26.53125-33.378906 27.679687-14.097657 51.035156-35.488282 67.535156-61.859376zm-74.339844 48.496094c-15.882812 8.089844-27.691406 21.941406-32.984375 38.476563h-75.449219c-5.289062-16.550781-17.050781-30.375-32.859375-38.410157-52.683593-26.777343-85.410156-80.09375-85.410156-139.136718-.003906-85.601563 69.628906-155.578125 155.214844-155.992188 41.796875-.246094 81.175781 15.925782 110.8125 45.417969s45.960937 68.761719 45.960937 110.570313c-.003906 58.984374-32.683594 112.273437-85.285156 139.074218zm0 0" /><path d="m171.242188 170.996094c0-54.925782 12.136718-104.957032 32.472656-133.839844l-12.269532-8.636719c-22.042968 31.316407-35.203124 84.578125-35.203124 142.476563 0 63.625 16.03125 121.398437 41.839843 150.773437 3.238281 3.683594 6.085938 9.375 8.238281 16.457031l14.355469-4.363281c-2.773437-9.109375-6.6875-16.71875-11.324219-21.996093-23.152343-26.347657-38.109374-81.644532-38.109374-140.871094zm0 0" /><path d="m269.734375 37.230469c20.375 29 32.535156 79.003906 32.535156 133.761719 0 59.167968-14.9375 114.441406-38.054687 140.8125-4.65625 5.3125-8.585938 12.9375-11.363282 22.050781l14.347657 4.375c2.164062-7.09375 5.03125-12.8125 8.296875-16.539063 25.769531-29.394531 41.773437-87.136718 41.773437-150.699218 0-57.726563-13.179687-110.957032-35.261719-142.382813zm0 0" /><path d="m329.128906 284.109375-9.46875-11.632813c30.5625-24.875 48.089844-61.863281 48.089844-101.484374 0-21.273438-5.238281-42.40625-15.148438-61.113282l13.253907-7.023437c11.050781 20.863281 16.894531 44.425781 16.894531 68.136719 0 44.152343-19.546875 85.382812-53.621094 113.117187zm18.746094-182.417969c-2.496094-3.992187-5.242188-7.894531-8.164062-11.601562l11.785156-9.28125c3.25 4.128906 6.308594 8.476562 9.09375 12.921875zm-14.28125-18.816406c-3.167969-3.480469-6.566406-6.832031-10.101562-9.960938l9.945312-11.230468c3.933594 3.484375 7.71875 7.214844 11.246094 11.09375zm0 0" /><path d="m277.824219 265.835938-14.148438-4.980469c6.203125-17.617188 13.597657-47.503907 13.597657-89.863281-.003907-19.375-1.667969-38.289063-4.953126-56.214844l14.753907-2.703125c3.449219 18.816406 5.195312 38.640625 5.199219 58.917969-.003907 44.476562-7.859376 76.125-14.449219 94.84375zm-7.429688-160.589844c-1.074219-4.84375-2.277343-9.582032-3.574219-14.082032l14.410157-4.160156c1.386719 4.800782 2.667969 9.84375 3.808593 14.996094zm-6.46875-23.269532c-1.609375-4.710937-3.363281-9.195312-5.214843-13.335937l13.695312-6.117187c2.03125 4.550781 3.953125 9.460937 5.710938 14.59375zm0 0" /></svg>
