<svg viewBox="0 -31 512.12889 512" xmlns="http://www.w3.org/2000/svg"><path d="m165.582031 122.542969c4.746094 4.644531 11.128907 7.234375 17.769531 7.210937 6.09375-.003906 12.003907-2.113281 16.722657-5.972656 5.394531-4.496094 11.75-7.6875 18.578125-9.320312 12.933594-2.820313 21.640625-14.960938 20.164062-28.117188l-1.78125-14.8125c-.90625-7.316406-4.910156-13.890625-10.996094-18.054688-6.082031-4.160156-13.664062-5.511718-20.808593-3.707031-17.03125 4.292969-33.285157 11.214844-48.179688 20.523438-6.578125 4.125-10.894531 11.050781-11.699219 18.773437-.851562 7.816406 1.933594 15.59375 7.558594 21.085938zm.625-37.785157c13.347657-8.363281 27.917969-14.59375 43.1875-18.464843.691407-.175781 1.402344-.261719 2.117188-.265625 1.75 0 3.457031.535156 4.898437 1.535156 2.023438 1.367188 3.351563 3.546875 3.640625 5.972656l1.792969 14.816406c.460938 4.5-2.609375 8.605469-7.058594 9.4375-9.371094 2.214844-18.105468 6.566407-25.519531 12.714844-3.359375 2.988282-8.433594 2.941406-11.734375-.101562l-12.613281-12.367188c-1.894531-1.84375-2.839844-4.453125-2.558594-7.082031.242187-2.535156 1.652344-4.808594 3.8125-6.152344zm0 0"/><path d="m15.609375 304.960938h48.375c13.851563 23.921874 32.042969 45.046874 53.640625 62.292968l-1.976562 36.691406c-.363282 7.449219 3.878906 14.355469 10.683593 17.402344 2.25 1.0625 4.707031 1.625 7.199219 1.644532 3.878906.019531 7.609375-1.5 10.371094-4.222657l22.414062-21.921875c28.234375 12.597656 58.804688 19.085938 89.71875 19.046875 2.117188 0 4.207032-.121093 6.300782-.179687l8.292968 22.519531c2.59375 7.003906 9.230469 11.691406 16.699219 11.792969h.519531c6.328125.214844 12.132813-3.496094 14.59375-9.328125l13.609375-33.195313c26.476563-7.40625 51.339844-19.671875 73.328125-36.171875l44.6875 14.148438c1.75.601562 3.589844.90625 5.4375.90625 5.480469-.070313 10.652344-2.570313 14.105469-6.828125 4.351563-4.882813 5.117187-11.988282 1.910156-17.6875l-20.804687-36.292969c13.621094-18.445313 24.277344-38.902344 31.574218-60.640625l26.394532 1.90625c.511718.050781 1.023437.066406 1.535156.066406 6.902344-.109375 13.148438-4.125 16.113281-10.359375 3.066407-5.753906 2.148438-12.824219-2.289062-17.605469l-30.480469-32.296874c0-.519532.09375-1.03125.121094-1.546876.175781-3.71875.261718-7.355468.261718-11.089843-.015624-21.355469-3.125-42.59375-9.230468-63.054688l37.546875-34.550781c5.503906-5.03125 7.335937-12.933594 4.613281-19.875-2.078125-6.242188-7.902344-10.464844-14.480469-10.503906l-59.210937.160156c-18.738282-26.703125-43.179688-48.914062-71.554688-65.015625-.050781 0-.101562 0-.144531-.050781-.042969-.050782-.304687-.125-.460937-.195313-.472657-.191406-.964844-.335937-1.464844-.425781-.429688-.160156-.875-.28125-1.324219-.367188-.050781 0-.09375 0-.144531 0-.050782 0-.214844 0-.332032 0-.121093 0-.214843-.070312-.335937-.070312-16.988281.398438-33.488281 5.785156-47.445313 15.488281-79.277343-25.917969-166.136718 3.796875-212.929687 72.84375-15.074219-.359375-30.011719 2.953125-43.519531 9.648438-.085938.050781-.128906.144531-.214844.207031-.085938.058594-.1875.058594-.273438.128906-.085937.066406-.179687.226563-.296874.324219-.351563.304687-.679688.636719-.972657.996094-.289062.292969-.558593.605469-.8125.929687-.136719.226563-.261719.457032-.375.691406-.078125.136719-.203125.214844-.265625.359376-6.082031 13.140624-10.816406 26.863281-14.128906 40.960937-4.03125 16.828125-6.050781 34.078125-6.015625 51.386719.011719 16.628906 1.898437 33.203125 5.628906 49.40625l-33.96875 31.164062c-5.492187 5.058594-7.308593 12.972656-4.574219 19.917969 2.085938 6.171875 7.835938 10.359375 14.351563 10.445313zm423.824219 64.316406-34.464844-10.90625c6.425781-5.839844 12.5-12.050782 18.195312-18.601563l16.816407 29.335938c-.160157.105469-.351563.164062-.546875.171875zm55.128906-119.707032c-.140625.140626-.320312.238282-.511719.28125l-22.886719-1.644531c1.601563-6.339843 2.917969-12.753906 3.949219-19.246093zm.261719-165.84375-32.136719 29.566407c-4.023438-10.375-8.835938-20.429688-14.394531-30.070313l46.675781-.128906c.019531.21875-.03125.441406-.144531.632812zm-225.988281 202.613282c-110.191407-42.121094-175.152344-100.546875-210.875-143.710938 1.777343-6.855468 3.914062-13.609375 6.410156-20.238281 4.957031 6.289063 10.433594 12.800781 16.46875 19.558594.058594.058593.101562.128906.160156.179687 47.667969 52.070313 106.328125 92.882813 171.726562 119.464844.078126 0 .152344 0 .230469.050781.9375.378907 1.941407.582031 2.953125.597657l.125.050781c1.097656-.027344 2.179688-.261719 3.183594-.699219.25-.101562.46875-.203125.710938-.324219 1.023437-.5 1.929687-1.207031 2.667968-2.074219 74.242188-90.246093 98.988282-176.007812 105.925782-236.039062 5.230468 3.414062 10.324218 7.125 15.273437 11.09375-1.925781 51.402344-20.238281 148.332031-114.960937 252.089844zm83.125-268.234375c-.476563 4.402343-1.046876 8.953125-1.707032 13.652343-5.273437-3.074218-10.683594-5.820312-16.214844-8.347656 5.71875-2.535156 11.742188-4.320312 17.921876-5.304687zm-95.925782 5.253906c32.25.007813 63.824219 9.210937 91.027344 26.53125-14.984375 71.121094-47.109375 137.507813-93.585938 193.390625-59.421874-25.039062-112.902343-62.316406-156.953124-109.40625 24.980468-66.453125 88.519531-110.476562 159.511718-110.515625zm-172.175781 96.007813c-2.890625-3.488282-5.664063-6.925782-8.25-10.238282 4.753906-1.3125 9.605469-2.257812 14.503906-2.824218-2.226562 4.242187-4.3125 8.597656-6.253906 13.0625zm-66.609375 167.914062 48.289062-44.296875c3.421876-3.09375 3.75-8.355469.734376-11.847656-3.015626-3.492188-8.265626-3.9375-11.828126-1.003907-3.949218-21.941406-4.238281-44.386718-.851562-66.425781 39.25 44.222657 106.136719 100.292969 214.570312 140.671875h.074219c.953125.375 1.964844.570313 2.988281.582032 1.03125-.019532 2.046876-.226563 3.003907-.613282.265625-.109375.523437-.238281.777343-.378906.742188-.367188 1.429688-.847656 2.03125-1.421875.125-.121094.304688-.171875.425782-.300781 93.867187-100.796875 117.757812-196.503906 122.5625-253.652344 9.609375 9.441406 18.257812 19.8125 25.824218 30.957031 10.777344 15.820313 19.222657 33.105469 25.078126 51.328125 6.597656 20.398438 9.941406 41.710938 9.90625 63.148438 0 3.414062-.074219 6.828125-.246094 10.238281-2.171875 43.996094-18.488282 86.109375-46.523438 120.082031-23.679687 28.574219-54.636718 50.226563-89.601562 62.667969l4.457031-10.871094c1.785156-4.359375-.300781-9.347656-4.660156-11.136719-4.363281-1.785156-9.347657.300782-11.136719 4.660157l-25.898438 63.148437c-.203124-.066406-.382812-.1875-.519531-.351562l-22.65625-61.492188c-.992187-2.941406-3.503906-5.113281-6.558593-5.671875-3.058594-.554687-6.171876.59375-8.136719 3-1.964844 2.402344-2.46875 5.6875-1.3125 8.570313l8.078125 21.957031c-26.289063.121094-52.34375-4.933594-76.679688-14.875l14.300782-13.960937c3.371093-3.296876 3.429687-8.703126.128906-12.074219-3.296875-3.371094-8.703125-3.425781-12.074219-.128907l-48.792969 47.738282c-.160156-.140625-.273437-.324219-.332031-.53125l3.539063-65.441406c.164062-3.046876-1.308594-5.953126-3.867188-7.621094-2.558594-1.667969-5.808594-1.84375-8.53125-.460938-2.722656 1.382813-4.503906 4.113282-4.667969 7.160156l-.390625 7.253907c-13.339844-12.0625-25.035156-25.820313-34.792968-40.925781h1.410156c4.710937 0 8.53125-3.820313 8.53125-8.535157 0-4.710937-3.820313-8.53125-8.53125-8.53125h-68.265625c-.011719-.214843.039062-.425781.144531-.613281zm0 0"/><path d="m331.035156 291.894531 63.890625 13.808594c1.253907.300781 2.535157.449219 3.824219.445313 6.074219-.078126 11.71875-3.148438 15.078125-8.210938 3.835937-5.265625 3.9375-12.378906.246094-17.75l-40.277344-56.960938c-1.75-2.511718-4.71875-3.894531-7.769531-3.617187-3.050782.273437-5.722656 2.164063-6.992188 4.953125-1.273437 2.789062-.953125 6.042969.835938 8.53125l39.40625 55.722656c-.164063.136719-.359375.222656-.570313.246094l-64.0625-13.847656c-2.976562-.644532-6.074219.351562-8.121093 2.609375-2.046876 2.257812-2.734376 5.4375-1.800782 8.339843.933594 2.90625 3.34375 5.089844 6.324219 5.730469zm0 0"/><path d="m285.902344 100.160156c16.496094 0 29.867187-13.371094 29.867187-29.867187 0-16.492188-13.371093-29.867188-29.867187-29.867188-16.492188 0-29.867188 13.375-29.867188 29.867188 0 16.496093 13.375 29.867187 29.867188 29.867187zm0-42.667968c7.070312 0 12.800781 5.730468 12.800781 12.800781 0 7.070312-5.730469 12.800781-12.800781 12.800781-7.066406 0-12.796875-5.730469-12.796875-12.800781 0-7.070313 5.730469-12.800781 12.796875-12.800781zm0 0"/><path d="m161.128906 332.089844c4.691406 3.171875 10.65625 3.8125 15.914063 1.703125l30.96875-12.390625c2.890625-1.089844 4.96875-3.65625 5.429687-6.714844.457032-3.054688-.769531-6.121094-3.214844-8.015625-2.441406-1.890625-5.71875-2.316406-8.5625-1.105469l-30.960937 12.390625v-30.0625c0-4.714843-3.820313-8.535156-8.53125-8.535156-4.714844 0-8.535156 3.820313-8.535156 8.535156v30.0625c0 5.660157 2.804687 10.953125 7.492187 14.132813zm0 0"/><path d="m392.570312 185.492188c.574219.003906 1.144532-.050782 1.707032-.167969l29.386718-5.871094c5.753907-1.148437 10.511719-5.167969 12.605469-10.648437 2.089844-5.476563 1.226563-11.644532-2.296875-16.335938l-17.507812-23.296875c-2.828125-3.769531-8.175782-4.53125-11.949219-1.703125-3.769531 2.824219-4.53125 8.175781-1.707031 11.945312l17.476562 23.304688-29.421875 5.878906c-4.296875.871094-7.230469 4.859375-6.792969 9.21875.441407 4.363282 4.117188 7.683594 8.5 7.675782zm0 0"/></svg>