<?xml version="1.0" encoding="UTF-8" standalone="no"?>
<svg
   xmlns="http://www.w3.org/2000/svg"
   viewBox="0 0 512.00147 512"
   version="1.1">
  <path
     d="m256 408.308594 111.761719 37.253906c4.171875 1.390625 8.480469-1.714844 8.480469-6.113281v-23.125l85.5-35.625c4.660156-1.941407 5.378906-8.253907 1.265624-11.191407l-46.683593-33.347656 55.785156-41.839844c3.832031-2.875 3.300781-8.777343-.984375-10.917968l-22.738281-11.371094 47.898437-95.792969c2.722656-5.449219-2.933594-11.285156-8.464844-8.734375l-87.527343 40.398438-11.433594-22.863282c-2.128906-4.253906-7.972656-4.816406-10.871094-1.046874l-49.980469 64.972656c-4.542968 5.90625-13.863281.949218-11.507812-6.117188l32.882812-98.648437c1.382813-4.152344-1.707031-8.441407-6.085937-8.441407h-39.199219l20.980469-69.9375c1.390625-4.632812-2.65625-9.078124-7.398437-8.128906l-29.613282 5.921875-26.496094-46.367187c-2.464843-4.308594-8.675781-4.308594-11.136718 0l-26.496094 46.367187-29.613281-5.921875c-4.746094-.949218-8.789063 3.496094-7.402344 8.128906l20.980469 69.9375h-39.195313c-4.378906 0-7.46875 4.289063-6.085937 8.441407l32.882812 98.648437c2.355469 7.066406-6.964844 12.023438-11.507812 6.117188l-49.980469-64.972656c-2.902344-3.769532-8.746094-3.207032-10.871094 1.046874l-11.433593 22.863282-87.53125-40.398438c-5.53125-2.550781-11.1875 3.285156-8.460938 8.734375l47.898438 95.792969-22.742188 11.371094c-4.285156 2.140625-4.816406 8.042968-.984375 10.917968l55.789063 41.839844-46.683594 33.347656c-4.113282 2.9375-3.398438 9.246094 1.265625 11.191407l85.496093 35.625v23.125c0 4.398437 4.308594 7.503906 8.484376 6.113281zm0 0"
     fill="#ff8086"
     id="path835" />
  <g
     fill="#e5646e"
     id="g843">
    <path
       d="m487.820312 167.503906-87.527343 40.402344-11.433594-22.867188c-2.128906-4.253906-7.972656-4.816406-10.871094-1.046874l-49.980469 64.972656c-2.433593 3.164062-6.195312 3.15625-8.839843 1.429687l-63.167969 157.914063 239.269531-239.269532c-1.753906-1.925781-4.605469-2.84375-7.449219-1.535156zm0 0"
       id="path837" />
    <path
       d="m250.433594 17.246094-26.496094 46.367187-29.613281-5.921875c-4.746094-.949218-8.789063 3.496094-7.402344 8.128906l20.980469 69.9375h-39.195313c-4.378906 0-7.46875 4.289063-6.085937 8.441407l32.882812 98.648437c1.421875 4.265625-1.425781 7.71875-4.894531 8.519532l65.390625 156.941406v-394.292969c-2.167969 0-4.335938 1.074219-5.566406 3.230469zm0 0"
       id="path839" />
    <path
       d="m15.714844 176.238281 47.898437 95.792969-22.738281 11.371094c-4.285156 2.140625-4.816406 8.042968-.984375 10.917968l55.789063 41.839844-46.683594 33.347656c-4.113282 2.9375-3.398438 9.246094 1.265625 11.191407l85.496093 35.625v23.121093c0 4.398438 4.308594 7.503907 8.484376 6.113282l111.757812-37.25-239.269531-239.269532c-1.660157 1.824219-2.339844 4.546876-1.015625 7.199219zm0 0"
       id="path841" />
  </g>
  <path
     d="m509.886719 154.585938c-2.214844-2.285157-5.636719-2.921876-8.527344-1.589844l-97.609375 45.050781-12.78125-25.5625c-1.15625-2.308594-3.417969-3.863281-5.992188-4.109375-2.570312-.246094-5.085937.84375-6.664062 2.894531l-53.027344 68.9375 34.023438-102.074219c.761718-2.289062.378906-4.800781-1.03125-6.757812s-3.671875-3.117188-6.082032-3.117188h-38.019531l21.152344-70.503906c.757813-2.523437.136719-5.257812-1.636719-7.203125-1.769531-1.945312-4.4375-2.824219-7.015625-2.308593l-34.78125 6.957031-29.382812-51.417969c-1.335938-2.335938-3.820313-3.78125-6.511719-3.78125s-5.175781 1.441406-6.511719 3.78125l-29.382812 51.417969-34.777344-6.957031c-2.582031-.515626-5.246094.359374-7.019531 2.308593-1.769532 1.945313-2.394532 4.679688-1.636719 7.203125l21.152344 70.503906h-38.015625c-2.414063 0-4.675782 1.160157-6.085938 3.117188-1.410156 1.953125-1.792968 4.46875-1.03125 6.753906l34.027344 102.078125-53.03125-68.941406c-1.574219-2.046875-4.089844-3.136719-6.664062-2.890625-2.570313.246094-4.835938 1.800781-5.988282 4.109375l-12.78125 25.5625-97.609375-45.050781c-2.894531-1.332032-6.3125-.695313-8.53125 1.589844-2.214843 2.289062-2.746093 5.726562-1.320312 8.574218l52.757812 105.519532-25.355469 12.675781c-2.324218 1.164062-3.882812 3.445312-4.117187 6.035156s.890625 5.113281 2.972656 6.675781l55.929688 41.949219-47.773438 34.125c-2.214843 1.582031-3.398437 4.238281-3.09375 6.945313.304688 2.703124 2.054688 5.03125 4.566407 6.078124l91.578124 38.15625v27.066407c0 2.410156 1.160157 4.675781 3.117188 6.085937 1.957031 1.40625 4.46875 1.792969 6.757812 1.027344l110.367188-36.789062v85.789062c0 4.144531 3.359375 7.5 7.5 7.5 4.144531 0 7.5-3.355469 7.5-7.5v-85.789062l110.371094 36.792968c.773437.257813 1.574218.386719 2.371094.386719 1.554687 0 3.09375-.484375 4.386718-1.417969 1.957032-1.410156 3.113282-3.675781 3.113282-6.082031v-27.066406l91.578124-38.15625c2.515626-1.046875 4.261719-3.375 4.570313-6.082031.304687-2.703126-.878906-5.363282-3.09375-6.945313l-47.777344-34.125 55.933594-41.949219c2.082031-1.558594 3.203125-4.085937 2.96875-6.671875-.230469-2.589843-1.789063-4.875-4.113281-6.035156l-25.355469-12.679687 52.757813-105.515626c1.421874-2.851562.890624-6.289062-1.324219-8.578124zm-294.796875-20.980469-20.460938-68.203125 27.835938 5.566406c3.167968.632812 6.382812-.832031 7.984375-3.632812l18.050781-31.59375v35.890624c0 4.140626 3.359375 7.5 7.5 7.5 4.144531 0 7.5-3.359374 7.5-7.5v-35.890624l18.054688 31.59375c1.601562 2.800781 4.816406 4.265624 7.980468 3.632812l27.839844-5.570312-20.460938 68.207031c-.679687 2.269531-.25 4.726562 1.167969 6.628906 1.414063 1.902344 3.644531 3.023437 6.015625 3.023437h29.992188l-70.589844 70.589844v-110.15625c0-4.140625-3.355469-7.5-7.5-7.5-4.140625 0-7.5 3.359375-7.5 7.5v110.15625l-70.585938-70.589844h29.988282c2.371094 0 4.605468-1.117187 6.019531-3.019531 1.414063-1.90625 1.847656-4.363281 1.167969-6.632812zm-106.523438 81.109375c3.679688 1.695312 8.042969.167968 9.851563-3.457032l10.679687-21.355468 72.863282 94.71875c2.230468 2.902344 6.230468 3.769531 9.464843 2.050781s4.75-5.523437 3.59375-8.996094l-38.050781-114.148437 71.53125 71.53125v155.140625l-205.960938-205.960938zm30.078125 194.6875-83.746093-34.894532 45.140624-32.242187c1.945313-1.390625 3.109376-3.625 3.136719-6.015625.03125-2.390625-1.085937-4.652344-3-6.085938l-54.417969-40.816406 21.207032-10.605468c3.707031-1.851563 5.207031-6.355469 3.355468-10.0625l-35.441406-70.890626 196.671875 196.675782-101.988281-25.5c-4.015625-1.003906-8.089844 1.441406-9.097656 5.457031-1.003906 4.019531 1.4375 8.09375 5.457031 9.097656l103.273437 25.816407-85.9375 28.648437v-21.660156c0-3.027344-1.820312-5.757813-4.613281-6.921875zm306.390625-130.660156 21.210938 10.605468-54.421875 40.8125c-1.914063 1.4375-3.027344 3.695313-3 6.085938.027343 2.394531 1.191406 4.628906 3.140625 6.019531l45.136718 32.238281-83.742187 34.898438c-2.796875 1.164062-4.617187 3.894531-4.617187 6.921875v21.660156l-85.933594-28.648437 103.269531-25.816407c4.019531-1.003906 6.460937-5.078125 5.457031-9.097656-1.003906-4.015625-5.078125-6.460937-9.09375-5.457031l-101.992187 25.5 12.917969-12.917969c2.929687-2.929687 2.929687-7.675781 0-10.605469-2.929688-2.929687-7.675782-2.929687-10.605469 0l-19.261719 19.257813v-155.140625l71.53125-71.53125-38.050781 114.148437c-1.15625 3.472657.363281 7.273438 3.597656 8.996094 3.230469 1.71875 7.230469.851563 9.464844-2.050781l72.859375-94.71875 10.679687 21.355468c1.8125 3.625 6.171875 5.152344 9.851563 3.457032l66.027344-30.476563-162.648438 162.652344c-2.929688 2.929687-2.929688 7.679687 0 10.605469 1.460938 1.464844 3.382812 2.199218 5.300781 2.199218 1.921875 0 3.839844-.734374 5.304688-2.199218l159.707031-159.707032-35.445312 70.890626c-1.851563 3.703124-.351563 8.210937 3.355468 10.0625zm0 0"
     id="path845"
     style="fill:#4d4d4d" />
</svg>
